<svg width="34" height="30" viewBox="0 0 34 30" fill="none" xmlns="http://www.w3.org/2000/svg">
<path d="M27 13.3333C27 11.735 25.8667 10.3983 24.365 10.0767C24.965 9.075 25.3334 7.91667 25.3334 6.66667C25.3334 2.99 22.3434 0 18.6667 0C16.1384 0 13.965 1.42833 12.8334 3.50667C11.7017 1.42833 9.52837 0 7.00004 0C3.32337 0 0.333374 2.99 0.333374 6.66667C0.333374 8.17 0.853374 9.545 1.69504 10.66C1.27435 10.9676 0.931913 11.3699 0.695374 11.8343C0.458836 12.2987 0.334831 12.8122 0.333374 13.3333V26.6667C0.333374 28.505 1.82837 30 3.66671 30H23.6667C25.505 30 27 28.505 27 26.6667V22.27L33.6667 25.6033V13.9367L27 17.27V13.3333ZM18.6667 3.33333C20.505 3.33333 22 4.82833 22 6.66667C22 8.505 20.505 10 18.6667 10C16.8284 10 15.3334 8.505 15.3334 6.66667C15.3334 4.82833 16.8284 3.33333 18.6667 3.33333ZM7.00004 3.33333C8.83837 3.33333 10.3334 4.82833 10.3334 6.66667C10.3334 8.505 8.83837 10 7.00004 10C5.16171 10 3.66671 8.505 3.66671 6.66667C3.66671 4.82833 5.16171 3.33333 7.00004 3.33333ZM3.66671 26.6667V13.3333H23.6667L23.67 26.6667H3.66671Z" fill="#247BA0"/>
</svg>
