<svg width="40" height="42" viewBox="0 0 40 42" fill="none" xmlns="http://www.w3.org/2000/svg">
<path d="M19.9834 3.42102C10.7834 3.42102 3.33337 11.0842 3.33337 20.5263C3.33337 29.9684 10.7834 37.6315 19.9834 37.6315C29.2 37.6315 36.6667 29.9684 36.6667 20.5263C36.6667 11.0842 29.2 3.42102 19.9834 3.42102ZM20 34.2105C12.6334 34.2105 6.66671 28.0868 6.66671 20.5263C6.66671 12.9658 12.6334 6.84207 20 6.84207C27.3667 6.84207 33.3334 12.9658 33.3334 20.5263C33.3334 28.0868 27.3667 34.2105 20 34.2105Z" fill="#247BA0"/>
<path d="M20.8334 11.9736H18.3334V22.2368L27.0834 27.6249L28.3334 25.521L20.8334 20.9539V11.9736Z" fill="#247BA0"/>
</svg>
